<mxfile host="Electron" modified="2024-04-16T00:49:45.393Z" agent="Mozilla/5.0 (Windows NT 10.0; Win64; x64) AppleWebKit/537.36 (KHTML, like Gecko) draw.io/24.1.0 Chrome/120.0.6099.109 Electron/28.1.0 Safari/537.36" etag="9DAeqtdk0DNBMy6DvAhy" version="24.1.0" type="device" pages="3">
  <diagram name="함수종속성다이어그램" id="sagsCe5ICZUu4UzRF6Xh">
    <mxGraphModel dx="2261" dy="3182" grid="1" gridSize="10" guides="1" tooltips="1" connect="1" arrows="1" fold="1" page="1" pageScale="1" pageWidth="827" pageHeight="1169" math="0" shadow="0">
      <root>
        <mxCell id="0" />
        <mxCell id="1" parent="0" />
        <mxCell id="iw_UNrlCYy5P853CFbxJ-1" value="&lt;span style=&quot;font-size: 20px;&quot;&gt;학생번호 -&amp;gt; 학생이름&lt;/span&gt;&lt;div&gt;&lt;span style=&quot;font-size: 20px;&quot;&gt;학생번호 -&amp;gt; 학과&lt;/span&gt;&lt;/div&gt;&lt;div&gt;&lt;span style=&quot;font-size: 20px;&quot;&gt;학생번호 -&amp;gt; 주소&lt;/span&gt;&lt;/div&gt;&lt;div&gt;&lt;span style=&quot;font-size: 20px;&quot;&gt;학과 -&amp;gt; 학과사무실&lt;/span&gt;&lt;/div&gt;&lt;div&gt;&lt;span style=&quot;font-size: 20px;&quot;&gt;강좌이름 -&amp;gt; 강의실&lt;/span&gt;&lt;/div&gt;&lt;div&gt;&lt;span style=&quot;font-size: 20px;&quot;&gt;(학생번호, 강좌이름) -&amp;gt; 성적&lt;/span&gt;&lt;/div&gt;" style="text;html=1;align=left;verticalAlign=middle;resizable=0;points=[];autosize=1;strokeColor=none;fillColor=none;" parent="1" vertex="1">
          <mxGeometry x="40" y="-1233" width="280" height="160" as="geometry" />
        </mxCell>
        <mxCell id="iw_UNrlCYy5P853CFbxJ-2" value="&lt;b&gt;&lt;font style=&quot;font-size: 18px;&quot;&gt;함수종속성 다이어그램&lt;/font&gt;&lt;/b&gt;" style="text;html=1;align=center;verticalAlign=middle;resizable=0;points=[];autosize=1;strokeColor=none;fillColor=none;" parent="1" vertex="1">
          <mxGeometry x="10" y="-1290" width="210" height="40" as="geometry" />
        </mxCell>
        <mxCell id="iw_UNrlCYy5P853CFbxJ-19" value="" style="group" parent="1" vertex="1" connectable="0">
          <mxGeometry x="360" y="-1330" width="410" height="290" as="geometry" />
        </mxCell>
        <mxCell id="iw_UNrlCYy5P853CFbxJ-6" value="" style="edgeStyle=orthogonalEdgeStyle;rounded=0;orthogonalLoop=1;jettySize=auto;html=1;" parent="iw_UNrlCYy5P853CFbxJ-19" source="iw_UNrlCYy5P853CFbxJ-3" target="iw_UNrlCYy5P853CFbxJ-5" edge="1">
          <mxGeometry relative="1" as="geometry" />
        </mxCell>
        <mxCell id="iw_UNrlCYy5P853CFbxJ-8" value="" style="edgeStyle=orthogonalEdgeStyle;rounded=0;orthogonalLoop=1;jettySize=auto;html=1;" parent="iw_UNrlCYy5P853CFbxJ-19" source="iw_UNrlCYy5P853CFbxJ-3" target="iw_UNrlCYy5P853CFbxJ-7" edge="1">
          <mxGeometry relative="1" as="geometry" />
        </mxCell>
        <mxCell id="iw_UNrlCYy5P853CFbxJ-10" value="" style="edgeStyle=orthogonalEdgeStyle;rounded=0;orthogonalLoop=1;jettySize=auto;html=1;" parent="iw_UNrlCYy5P853CFbxJ-19" source="iw_UNrlCYy5P853CFbxJ-3" target="iw_UNrlCYy5P853CFbxJ-9" edge="1">
          <mxGeometry relative="1" as="geometry" />
        </mxCell>
        <mxCell id="iw_UNrlCYy5P853CFbxJ-3" value="학생번호" style="rounded=0;whiteSpace=wrap;html=1;fontSize=14;" parent="iw_UNrlCYy5P853CFbxJ-19" vertex="1">
          <mxGeometry x="20" y="80" width="90" height="40" as="geometry" />
        </mxCell>
        <mxCell id="iw_UNrlCYy5P853CFbxJ-13" value="" style="edgeStyle=orthogonalEdgeStyle;rounded=0;orthogonalLoop=1;jettySize=auto;html=1;" parent="iw_UNrlCYy5P853CFbxJ-19" source="iw_UNrlCYy5P853CFbxJ-4" target="iw_UNrlCYy5P853CFbxJ-12" edge="1">
          <mxGeometry relative="1" as="geometry" />
        </mxCell>
        <mxCell id="iw_UNrlCYy5P853CFbxJ-4" value="강좌이름" style="rounded=0;whiteSpace=wrap;html=1;fontSize=14;" parent="iw_UNrlCYy5P853CFbxJ-19" vertex="1">
          <mxGeometry x="20" y="170" width="90" height="40" as="geometry" />
        </mxCell>
        <mxCell id="iw_UNrlCYy5P853CFbxJ-5" value="학생이름" style="rounded=0;whiteSpace=wrap;html=1;fontSize=14;" parent="iw_UNrlCYy5P853CFbxJ-19" vertex="1">
          <mxGeometry x="100" width="90" height="40" as="geometry" />
        </mxCell>
        <mxCell id="iw_UNrlCYy5P853CFbxJ-15" value="" style="edgeStyle=orthogonalEdgeStyle;rounded=0;orthogonalLoop=1;jettySize=auto;html=1;" parent="iw_UNrlCYy5P853CFbxJ-19" source="iw_UNrlCYy5P853CFbxJ-7" target="iw_UNrlCYy5P853CFbxJ-14" edge="1">
          <mxGeometry relative="1" as="geometry" />
        </mxCell>
        <mxCell id="iw_UNrlCYy5P853CFbxJ-7" value="학과" style="rounded=0;whiteSpace=wrap;html=1;fontSize=14;" parent="iw_UNrlCYy5P853CFbxJ-19" vertex="1">
          <mxGeometry x="180" y="60" width="90" height="40" as="geometry" />
        </mxCell>
        <mxCell id="iw_UNrlCYy5P853CFbxJ-9" value="주소" style="rounded=0;whiteSpace=wrap;html=1;fontSize=14;" parent="iw_UNrlCYy5P853CFbxJ-19" vertex="1">
          <mxGeometry x="180" y="110" width="90" height="40" as="geometry" />
        </mxCell>
        <mxCell id="iw_UNrlCYy5P853CFbxJ-12" value="강의실" style="rounded=0;whiteSpace=wrap;html=1;fontSize=14;" parent="iw_UNrlCYy5P853CFbxJ-19" vertex="1">
          <mxGeometry x="180" y="170" width="90" height="40" as="geometry" />
        </mxCell>
        <mxCell id="iw_UNrlCYy5P853CFbxJ-14" value="학과사무실" style="rounded=0;whiteSpace=wrap;html=1;fontSize=14;" parent="iw_UNrlCYy5P853CFbxJ-19" vertex="1">
          <mxGeometry x="320" y="60" width="90" height="40" as="geometry" />
        </mxCell>
        <mxCell id="iw_UNrlCYy5P853CFbxJ-18" value="" style="edgeStyle=orthogonalEdgeStyle;rounded=0;orthogonalLoop=1;jettySize=auto;html=1;" parent="iw_UNrlCYy5P853CFbxJ-19" source="iw_UNrlCYy5P853CFbxJ-16" target="iw_UNrlCYy5P853CFbxJ-17" edge="1">
          <mxGeometry relative="1" as="geometry" />
        </mxCell>
        <mxCell id="iw_UNrlCYy5P853CFbxJ-16" value="" style="rounded=0;whiteSpace=wrap;html=1;fillColor=none;" parent="iw_UNrlCYy5P853CFbxJ-19" vertex="1">
          <mxGeometry y="70" width="130" height="150" as="geometry" />
        </mxCell>
        <mxCell id="iw_UNrlCYy5P853CFbxJ-17" value="성적" style="whiteSpace=wrap;html=1;fillColor=none;rounded=0;fontSize=15;" parent="iw_UNrlCYy5P853CFbxJ-19" vertex="1">
          <mxGeometry x="5" y="250" width="105" height="40" as="geometry" />
        </mxCell>
        <mxCell id="iw_UNrlCYy5P853CFbxJ-22" value="&lt;b&gt;&lt;font style=&quot;font-size: 18px;&quot;&gt;부분 릴레이션 분해&lt;/font&gt;&lt;/b&gt;" style="text;html=1;align=center;verticalAlign=middle;resizable=0;points=[];autosize=1;strokeColor=none;fillColor=none;" parent="1" vertex="1">
          <mxGeometry x="40" y="-1020" width="180" height="40" as="geometry" />
        </mxCell>
        <mxCell id="iw_UNrlCYy5P853CFbxJ-39" value="학생수강성적(학생번호, 학생이름, 학과, 주소, 강좌이름, 학과사무실)&lt;div&gt;&lt;br&gt;&lt;/div&gt;&lt;div&gt;강의실(강좌이름, 강의실)&lt;/div&gt;" style="text;html=1;align=left;verticalAlign=middle;resizable=0;points=[];autosize=1;strokeColor=none;fillColor=none;fontSize=17;" parent="1" vertex="1">
          <mxGeometry x="-20" y="-942" width="540" height="70" as="geometry" />
        </mxCell>
        <mxCell id="iw_UNrlCYy5P853CFbxJ-24" value="" style="edgeStyle=orthogonalEdgeStyle;rounded=0;orthogonalLoop=1;jettySize=auto;html=1;" parent="1" source="iw_UNrlCYy5P853CFbxJ-27" target="iw_UNrlCYy5P853CFbxJ-30" edge="1">
          <mxGeometry relative="1" as="geometry" />
        </mxCell>
        <mxCell id="iw_UNrlCYy5P853CFbxJ-25" value="" style="edgeStyle=orthogonalEdgeStyle;rounded=0;orthogonalLoop=1;jettySize=auto;html=1;" parent="1" source="iw_UNrlCYy5P853CFbxJ-27" target="iw_UNrlCYy5P853CFbxJ-32" edge="1">
          <mxGeometry relative="1" as="geometry" />
        </mxCell>
        <mxCell id="iw_UNrlCYy5P853CFbxJ-26" value="" style="edgeStyle=orthogonalEdgeStyle;rounded=0;orthogonalLoop=1;jettySize=auto;html=1;" parent="1" source="iw_UNrlCYy5P853CFbxJ-27" target="iw_UNrlCYy5P853CFbxJ-33" edge="1">
          <mxGeometry relative="1" as="geometry" />
        </mxCell>
        <mxCell id="iw_UNrlCYy5P853CFbxJ-27" value="학생번호" style="rounded=0;whiteSpace=wrap;html=1;fontSize=14;" parent="1" vertex="1">
          <mxGeometry x="510" y="-920" width="90" height="40" as="geometry" />
        </mxCell>
        <mxCell id="iw_UNrlCYy5P853CFbxJ-29" value="강좌이름" style="rounded=0;whiteSpace=wrap;html=1;fontSize=14;" parent="1" vertex="1">
          <mxGeometry x="510" y="-830" width="90" height="40" as="geometry" />
        </mxCell>
        <mxCell id="iw_UNrlCYy5P853CFbxJ-30" value="학생이름" style="rounded=0;whiteSpace=wrap;html=1;fontSize=14;" parent="1" vertex="1">
          <mxGeometry x="590" y="-1000" width="90" height="40" as="geometry" />
        </mxCell>
        <mxCell id="iw_UNrlCYy5P853CFbxJ-31" value="" style="edgeStyle=orthogonalEdgeStyle;rounded=0;orthogonalLoop=1;jettySize=auto;html=1;" parent="1" source="iw_UNrlCYy5P853CFbxJ-32" target="iw_UNrlCYy5P853CFbxJ-35" edge="1">
          <mxGeometry relative="1" as="geometry" />
        </mxCell>
        <mxCell id="iw_UNrlCYy5P853CFbxJ-32" value="학과" style="rounded=0;whiteSpace=wrap;html=1;fontSize=14;" parent="1" vertex="1">
          <mxGeometry x="670" y="-940" width="90" height="40" as="geometry" />
        </mxCell>
        <mxCell id="iw_UNrlCYy5P853CFbxJ-33" value="주소" style="rounded=0;whiteSpace=wrap;html=1;fontSize=14;" parent="1" vertex="1">
          <mxGeometry x="670" y="-890" width="90" height="40" as="geometry" />
        </mxCell>
        <mxCell id="iw_UNrlCYy5P853CFbxJ-35" value="학과사무실" style="rounded=0;whiteSpace=wrap;html=1;fontSize=14;" parent="1" vertex="1">
          <mxGeometry x="810" y="-940" width="90" height="40" as="geometry" />
        </mxCell>
        <mxCell id="iw_UNrlCYy5P853CFbxJ-36" value="" style="edgeStyle=orthogonalEdgeStyle;rounded=0;orthogonalLoop=1;jettySize=auto;html=1;" parent="1" source="iw_UNrlCYy5P853CFbxJ-37" target="iw_UNrlCYy5P853CFbxJ-38" edge="1">
          <mxGeometry relative="1" as="geometry" />
        </mxCell>
        <mxCell id="iw_UNrlCYy5P853CFbxJ-37" value="" style="rounded=0;whiteSpace=wrap;html=1;fillColor=none;" parent="1" vertex="1">
          <mxGeometry x="490" y="-930" width="130" height="150" as="geometry" />
        </mxCell>
        <mxCell id="iw_UNrlCYy5P853CFbxJ-38" value="성적" style="whiteSpace=wrap;html=1;fillColor=none;rounded=0;fontSize=15;" parent="1" vertex="1">
          <mxGeometry x="495" y="-750" width="105" height="40" as="geometry" />
        </mxCell>
        <mxCell id="iw_UNrlCYy5P853CFbxJ-41" value="" style="edgeStyle=orthogonalEdgeStyle;rounded=0;orthogonalLoop=1;jettySize=auto;html=1;" parent="1" target="iw_UNrlCYy5P853CFbxJ-42" edge="1">
          <mxGeometry relative="1" as="geometry">
            <mxPoint x="780" y="-730" as="sourcePoint" />
          </mxGeometry>
        </mxCell>
        <mxCell id="iw_UNrlCYy5P853CFbxJ-42" value="강의실" style="rounded=0;whiteSpace=wrap;html=1;fontSize=14;" parent="1" vertex="1">
          <mxGeometry x="850" y="-750" width="90" height="40" as="geometry" />
        </mxCell>
        <mxCell id="iw_UNrlCYy5P853CFbxJ-43" value="강좌이름" style="rounded=0;whiteSpace=wrap;html=1;fontSize=14;" parent="1" vertex="1">
          <mxGeometry x="700" y="-750" width="90" height="40" as="geometry" />
        </mxCell>
        <mxCell id="iw_UNrlCYy5P853CFbxJ-44" value="&lt;b style=&quot;font-size: 18px;&quot;&gt;강의실&lt;/b&gt;" style="text;html=1;align=center;verticalAlign=middle;resizable=0;points=[];autosize=1;strokeColor=none;fillColor=none;fontSize=18;" parent="1" vertex="1">
          <mxGeometry x="705" y="-810" width="80" height="40" as="geometry" />
        </mxCell>
        <mxCell id="iw_UNrlCYy5P853CFbxJ-45" value="학생수강성적(학생번호, 학생이름, 학과, 주소, 강좌이름)&lt;div&gt;&lt;br&gt;&lt;/div&gt;&lt;div&gt;학과(학과, 학과사무실)&lt;/div&gt;&lt;div&gt;&lt;br&gt;&lt;/div&gt;&lt;div&gt;강의실(강좌이름, 강의실)&lt;/div&gt;" style="text;html=1;align=left;verticalAlign=middle;resizable=0;points=[];autosize=1;strokeColor=none;fillColor=none;fontSize=17;" parent="1" vertex="1">
          <mxGeometry x="-10" y="-644" width="450" height="120" as="geometry" />
        </mxCell>
        <mxCell id="iw_UNrlCYy5P853CFbxJ-46" value="&lt;b style=&quot;font-size: 18px;&quot;&gt;학생수강성적&lt;/b&gt;" style="text;html=1;align=center;verticalAlign=middle;resizable=0;points=[];autosize=1;strokeColor=none;fillColor=none;fontSize=18;" parent="1" vertex="1">
          <mxGeometry x="490" y="-1050" width="130" height="40" as="geometry" />
        </mxCell>
        <mxCell id="iw_UNrlCYy5P853CFbxJ-47" value="" style="edgeStyle=orthogonalEdgeStyle;rounded=0;orthogonalLoop=1;jettySize=auto;html=1;" parent="1" source="iw_UNrlCYy5P853CFbxJ-50" target="iw_UNrlCYy5P853CFbxJ-52" edge="1">
          <mxGeometry relative="1" as="geometry" />
        </mxCell>
        <mxCell id="iw_UNrlCYy5P853CFbxJ-48" value="" style="edgeStyle=orthogonalEdgeStyle;rounded=0;orthogonalLoop=1;jettySize=auto;html=1;" parent="1" source="iw_UNrlCYy5P853CFbxJ-50" target="iw_UNrlCYy5P853CFbxJ-54" edge="1">
          <mxGeometry relative="1" as="geometry" />
        </mxCell>
        <mxCell id="iw_UNrlCYy5P853CFbxJ-49" value="" style="edgeStyle=orthogonalEdgeStyle;rounded=0;orthogonalLoop=1;jettySize=auto;html=1;" parent="1" source="iw_UNrlCYy5P853CFbxJ-50" target="iw_UNrlCYy5P853CFbxJ-55" edge="1">
          <mxGeometry relative="1" as="geometry" />
        </mxCell>
        <mxCell id="iw_UNrlCYy5P853CFbxJ-50" value="학생번호" style="rounded=0;whiteSpace=wrap;html=1;fontSize=14;" parent="1" vertex="1">
          <mxGeometry x="500" y="-540" width="90" height="40" as="geometry" />
        </mxCell>
        <mxCell id="iw_UNrlCYy5P853CFbxJ-51" value="강좌이름" style="rounded=0;whiteSpace=wrap;html=1;fontSize=14;" parent="1" vertex="1">
          <mxGeometry x="500" y="-450" width="90" height="40" as="geometry" />
        </mxCell>
        <mxCell id="iw_UNrlCYy5P853CFbxJ-52" value="학생이름" style="rounded=0;whiteSpace=wrap;html=1;fontSize=14;" parent="1" vertex="1">
          <mxGeometry x="580" y="-620" width="90" height="40" as="geometry" />
        </mxCell>
        <mxCell id="iw_UNrlCYy5P853CFbxJ-54" value="학과" style="rounded=0;whiteSpace=wrap;html=1;fontSize=14;" parent="1" vertex="1">
          <mxGeometry x="660" y="-560" width="90" height="40" as="geometry" />
        </mxCell>
        <mxCell id="iw_UNrlCYy5P853CFbxJ-55" value="주소" style="rounded=0;whiteSpace=wrap;html=1;fontSize=14;" parent="1" vertex="1">
          <mxGeometry x="660" y="-510" width="90" height="40" as="geometry" />
        </mxCell>
        <mxCell id="iw_UNrlCYy5P853CFbxJ-57" value="" style="edgeStyle=orthogonalEdgeStyle;rounded=0;orthogonalLoop=1;jettySize=auto;html=1;" parent="1" source="iw_UNrlCYy5P853CFbxJ-58" target="iw_UNrlCYy5P853CFbxJ-59" edge="1">
          <mxGeometry relative="1" as="geometry" />
        </mxCell>
        <mxCell id="iw_UNrlCYy5P853CFbxJ-58" value="" style="rounded=0;whiteSpace=wrap;html=1;fillColor=none;" parent="1" vertex="1">
          <mxGeometry x="480" y="-550" width="130" height="150" as="geometry" />
        </mxCell>
        <mxCell id="iw_UNrlCYy5P853CFbxJ-59" value="성적" style="whiteSpace=wrap;html=1;fillColor=none;rounded=0;fontSize=15;" parent="1" vertex="1">
          <mxGeometry x="485" y="-370" width="105" height="40" as="geometry" />
        </mxCell>
        <mxCell id="iw_UNrlCYy5P853CFbxJ-60" value="" style="edgeStyle=orthogonalEdgeStyle;rounded=0;orthogonalLoop=1;jettySize=auto;html=1;" parent="1" target="iw_UNrlCYy5P853CFbxJ-61" edge="1">
          <mxGeometry relative="1" as="geometry">
            <mxPoint x="740" y="-380" as="sourcePoint" />
          </mxGeometry>
        </mxCell>
        <mxCell id="iw_UNrlCYy5P853CFbxJ-61" value="강의실" style="rounded=0;whiteSpace=wrap;html=1;fontSize=14;" parent="1" vertex="1">
          <mxGeometry x="810" y="-400" width="90" height="40" as="geometry" />
        </mxCell>
        <mxCell id="iw_UNrlCYy5P853CFbxJ-62" value="강좌이름" style="rounded=0;whiteSpace=wrap;html=1;fontSize=14;" parent="1" vertex="1">
          <mxGeometry x="660" y="-400" width="90" height="40" as="geometry" />
        </mxCell>
        <mxCell id="iw_UNrlCYy5P853CFbxJ-63" value="&lt;b style=&quot;font-size: 18px;&quot;&gt;강의실&lt;/b&gt;" style="text;html=1;align=center;verticalAlign=middle;resizable=0;points=[];autosize=1;strokeColor=none;fillColor=none;fontSize=18;" parent="1" vertex="1">
          <mxGeometry x="665" y="-460" width="80" height="40" as="geometry" />
        </mxCell>
        <mxCell id="iw_UNrlCYy5P853CFbxJ-64" value="&lt;b style=&quot;font-size: 18px;&quot;&gt;학생수강성적&lt;/b&gt;" style="text;html=1;align=center;verticalAlign=middle;resizable=0;points=[];autosize=1;strokeColor=none;fillColor=none;fontSize=18;" parent="1" vertex="1">
          <mxGeometry x="480" y="-670" width="130" height="40" as="geometry" />
        </mxCell>
        <mxCell id="iw_UNrlCYy5P853CFbxJ-65" value="" style="edgeStyle=orthogonalEdgeStyle;rounded=0;orthogonalLoop=1;jettySize=auto;html=1;" parent="1" source="iw_UNrlCYy5P853CFbxJ-66" target="iw_UNrlCYy5P853CFbxJ-67" edge="1">
          <mxGeometry relative="1" as="geometry" />
        </mxCell>
        <mxCell id="iw_UNrlCYy5P853CFbxJ-66" value="학과" style="rounded=0;whiteSpace=wrap;html=1;fontSize=14;" parent="1" vertex="1">
          <mxGeometry x="660" y="-310" width="90" height="40" as="geometry" />
        </mxCell>
        <mxCell id="iw_UNrlCYy5P853CFbxJ-67" value="학과사무실" style="rounded=0;whiteSpace=wrap;html=1;fontSize=14;" parent="1" vertex="1">
          <mxGeometry x="800" y="-310" width="90" height="40" as="geometry" />
        </mxCell>
        <mxCell id="iw_UNrlCYy5P853CFbxJ-68" value="&lt;b style=&quot;font-size: 18px;&quot;&gt;학과&lt;/b&gt;" style="text;html=1;align=center;verticalAlign=middle;resizable=0;points=[];autosize=1;strokeColor=none;fillColor=none;fontSize=18;" parent="1" vertex="1">
          <mxGeometry x="675" y="-350" width="60" height="40" as="geometry" />
        </mxCell>
        <mxCell id="iw_UNrlCYy5P853CFbxJ-69" value="학생(학생번호, 학생이름, 학과, 주소)&lt;div&gt;&lt;br&gt;&lt;/div&gt;&lt;div&gt;학생성적(&lt;span style=&quot;background-color: initial;&quot;&gt;학생이름, 강좌이름, 성적)&lt;/span&gt;&lt;/div&gt;&lt;div&gt;&lt;span style=&quot;background-color: initial;&quot;&gt;&lt;br&gt;&lt;/span&gt;&lt;/div&gt;&lt;div&gt;학과(학과, 학과사무실)&lt;/div&gt;&lt;div&gt;&lt;br&gt;&lt;/div&gt;&lt;div&gt;강의실(강좌이름, 강의실)&lt;/div&gt;" style="text;html=1;align=left;verticalAlign=middle;resizable=0;points=[];autosize=1;strokeColor=none;fillColor=none;fontSize=17;" parent="1" vertex="1">
          <mxGeometry x="-20" y="-270" width="300" height="160" as="geometry" />
        </mxCell>
        <mxCell id="iw_UNrlCYy5P853CFbxJ-70" value="" style="edgeStyle=orthogonalEdgeStyle;rounded=0;orthogonalLoop=1;jettySize=auto;html=1;" parent="1" source="iw_UNrlCYy5P853CFbxJ-73" target="iw_UNrlCYy5P853CFbxJ-75" edge="1">
          <mxGeometry relative="1" as="geometry" />
        </mxCell>
        <mxCell id="iw_UNrlCYy5P853CFbxJ-71" value="" style="edgeStyle=orthogonalEdgeStyle;rounded=0;orthogonalLoop=1;jettySize=auto;html=1;" parent="1" source="iw_UNrlCYy5P853CFbxJ-73" target="iw_UNrlCYy5P853CFbxJ-76" edge="1">
          <mxGeometry relative="1" as="geometry" />
        </mxCell>
        <mxCell id="iw_UNrlCYy5P853CFbxJ-72" value="" style="edgeStyle=orthogonalEdgeStyle;rounded=0;orthogonalLoop=1;jettySize=auto;html=1;" parent="1" source="iw_UNrlCYy5P853CFbxJ-73" target="iw_UNrlCYy5P853CFbxJ-77" edge="1">
          <mxGeometry relative="1" as="geometry" />
        </mxCell>
        <mxCell id="iw_UNrlCYy5P853CFbxJ-73" value="학생번호" style="rounded=0;whiteSpace=wrap;html=1;fontSize=14;" parent="1" vertex="1">
          <mxGeometry x="342.5" y="-70" width="90" height="40" as="geometry" />
        </mxCell>
        <mxCell id="iw_UNrlCYy5P853CFbxJ-75" value="학생이름" style="rounded=0;whiteSpace=wrap;html=1;fontSize=14;" parent="1" vertex="1">
          <mxGeometry x="410" y="-160" width="90" height="40" as="geometry" />
        </mxCell>
        <mxCell id="iw_UNrlCYy5P853CFbxJ-76" value="학과" style="rounded=0;whiteSpace=wrap;html=1;fontSize=14;" parent="1" vertex="1">
          <mxGeometry x="510" y="-100" width="90" height="40" as="geometry" />
        </mxCell>
        <mxCell id="iw_UNrlCYy5P853CFbxJ-77" value="주소" style="rounded=0;whiteSpace=wrap;html=1;fontSize=14;" parent="1" vertex="1">
          <mxGeometry x="510" y="-50" width="90" height="40" as="geometry" />
        </mxCell>
        <mxCell id="iw_UNrlCYy5P853CFbxJ-78" value="" style="edgeStyle=orthogonalEdgeStyle;rounded=0;orthogonalLoop=1;jettySize=auto;html=1;" parent="1" source="iw_UNrlCYy5P853CFbxJ-79" target="iw_UNrlCYy5P853CFbxJ-80" edge="1">
          <mxGeometry relative="1" as="geometry" />
        </mxCell>
        <mxCell id="iw_UNrlCYy5P853CFbxJ-79" value="" style="rounded=0;whiteSpace=wrap;html=1;fillColor=none;" parent="1" vertex="1">
          <mxGeometry x="285" y="60" width="130" height="150" as="geometry" />
        </mxCell>
        <mxCell id="iw_UNrlCYy5P853CFbxJ-80" value="성적" style="whiteSpace=wrap;html=1;fillColor=none;rounded=0;fontSize=15;" parent="1" vertex="1">
          <mxGeometry x="475" y="115" width="105" height="40" as="geometry" />
        </mxCell>
        <mxCell id="iw_UNrlCYy5P853CFbxJ-81" value="" style="edgeStyle=orthogonalEdgeStyle;rounded=0;orthogonalLoop=1;jettySize=auto;html=1;" parent="1" target="iw_UNrlCYy5P853CFbxJ-82" edge="1">
          <mxGeometry relative="1" as="geometry">
            <mxPoint x="725" y="-40" as="sourcePoint" />
          </mxGeometry>
        </mxCell>
        <mxCell id="iw_UNrlCYy5P853CFbxJ-82" value="강의실" style="rounded=0;whiteSpace=wrap;html=1;fontSize=14;" parent="1" vertex="1">
          <mxGeometry x="795" y="-60" width="90" height="40" as="geometry" />
        </mxCell>
        <mxCell id="iw_UNrlCYy5P853CFbxJ-83" value="강좌이름" style="rounded=0;whiteSpace=wrap;html=1;fontSize=14;" parent="1" vertex="1">
          <mxGeometry x="645" y="-60" width="90" height="40" as="geometry" />
        </mxCell>
        <mxCell id="iw_UNrlCYy5P853CFbxJ-84" value="&lt;b style=&quot;font-size: 18px;&quot;&gt;강의실&lt;/b&gt;" style="text;html=1;align=center;verticalAlign=middle;resizable=0;points=[];autosize=1;strokeColor=none;fillColor=none;fontSize=18;" parent="1" vertex="1">
          <mxGeometry x="650" y="-120" width="80" height="40" as="geometry" />
        </mxCell>
        <mxCell id="iw_UNrlCYy5P853CFbxJ-85" value="&lt;b style=&quot;font-size: 18px;&quot;&gt;학생&lt;/b&gt;" style="text;html=1;align=center;verticalAlign=middle;resizable=0;points=[];autosize=1;strokeColor=none;fillColor=none;fontSize=18;" parent="1" vertex="1">
          <mxGeometry x="387.5" y="-200" width="60" height="40" as="geometry" />
        </mxCell>
        <mxCell id="iw_UNrlCYy5P853CFbxJ-86" value="" style="edgeStyle=orthogonalEdgeStyle;rounded=0;orthogonalLoop=1;jettySize=auto;html=1;" parent="1" source="iw_UNrlCYy5P853CFbxJ-87" target="iw_UNrlCYy5P853CFbxJ-88" edge="1">
          <mxGeometry relative="1" as="geometry" />
        </mxCell>
        <mxCell id="iw_UNrlCYy5P853CFbxJ-87" value="학과" style="rounded=0;whiteSpace=wrap;html=1;fontSize=14;" parent="1" vertex="1">
          <mxGeometry x="645" y="100" width="90" height="40" as="geometry" />
        </mxCell>
        <mxCell id="iw_UNrlCYy5P853CFbxJ-88" value="학과사무실" style="rounded=0;whiteSpace=wrap;html=1;fontSize=14;" parent="1" vertex="1">
          <mxGeometry x="785" y="100" width="90" height="40" as="geometry" />
        </mxCell>
        <mxCell id="iw_UNrlCYy5P853CFbxJ-89" value="&lt;b style=&quot;font-size: 18px;&quot;&gt;학과&lt;/b&gt;" style="text;html=1;align=center;verticalAlign=middle;resizable=0;points=[];autosize=1;strokeColor=none;fillColor=none;fontSize=18;" parent="1" vertex="1">
          <mxGeometry x="660" y="60" width="60" height="40" as="geometry" />
        </mxCell>
        <mxCell id="iw_UNrlCYy5P853CFbxJ-90" value="강좌이름" style="rounded=0;whiteSpace=wrap;html=1;fontSize=14;" parent="1" vertex="1">
          <mxGeometry x="305" y="150" width="90" height="40" as="geometry" />
        </mxCell>
        <mxCell id="iw_UNrlCYy5P853CFbxJ-91" value="학생번호" style="rounded=0;whiteSpace=wrap;html=1;fontSize=14;" parent="1" vertex="1">
          <mxGeometry x="305" y="80" width="90" height="40" as="geometry" />
        </mxCell>
        <mxCell id="iw_UNrlCYy5P853CFbxJ-92" value="&lt;b&gt;학생성적&lt;/b&gt;" style="text;html=1;align=center;verticalAlign=middle;resizable=0;points=[];autosize=1;strokeColor=none;fillColor=none;fontSize=18;" parent="1" vertex="1">
          <mxGeometry x="299" width="100" height="40" as="geometry" />
        </mxCell>
      </root>
    </mxGraphModel>
  </diagram>
  <diagram id="zarBqSFQKg0QwYqJHKUU" name="부동산 데이터베이스">
    <mxGraphModel dx="2261" dy="2013" grid="1" gridSize="10" guides="1" tooltips="1" connect="1" arrows="1" fold="1" page="1" pageScale="1" pageWidth="827" pageHeight="1169" math="0" shadow="0">
      <root>
        <mxCell id="0" />
        <mxCell id="1" parent="0" />
        <mxCell id="CB3mXq6G2gTffusGemUr-1" value="&lt;div style=&quot;font-size: 17px;&quot;&gt;다음은 부동산 정보를 저장하는 데이터베이스이다.&lt;/div&gt;&lt;div style=&quot;font-size: 17px;&quot;&gt;아래와 같은 하나의 릴레이션에 정보가 저장되어있고,&lt;/div&gt;&lt;div style=&quot;font-size: 17px;&quot;&gt;&lt;br style=&quot;font-size: 17px;&quot;&gt;&lt;/div&gt;&lt;div style=&quot;font-size: 17px;&quot;&gt;```&lt;/div&gt;&lt;div style=&quot;font-size: 17px;&quot;&gt;부동산(필지번호, 주소, 공시지가, 소유자이름, 주민등록번호, 전화번호)&lt;/div&gt;&lt;div style=&quot;font-size: 17px;&quot;&gt;```&lt;/div&gt;&lt;div style=&quot;font-size: 17px;&quot;&gt;다음과 같은 함수 종속성을 가진다.&amp;nbsp;&lt;/div&gt;&lt;div style=&quot;font-size: 17px;&quot;&gt;&lt;br style=&quot;font-size: 17px;&quot;&gt;&lt;/div&gt;&lt;div style=&quot;font-size: 17px;&quot;&gt;```&lt;/div&gt;&lt;div style=&quot;font-size: 17px;&quot;&gt;함수 종속성&lt;/div&gt;&lt;div style=&quot;font-size: 17px;&quot;&gt;&lt;span style=&quot;white-space-collapse: collapse; font-size: 17px;&quot;&gt;&lt;span style=&quot;white-space-collapse: preserve; font-size: 17px;&quot;&gt;&#x9;&lt;/span&gt;- 필지번호 -&amp;gt; 주소, 공시지가 : 땅에 대한 고유 번호이며 필지에 대하여 주소와 공시가격이 주어진다.&lt;/span&gt;&lt;/div&gt;&lt;div style=&quot;font-size: 17px;&quot;&gt;&lt;span style=&quot;white-space-collapse: collapse; font-size: 17px;&quot;&gt;&lt;span style=&quot;white-space-collapse: preserve; font-size: 17px;&quot;&gt;&#x9;&lt;/span&gt;- 소유자이름 -&amp;gt; 전화번호 : 소유자는 하나의 전화번호를 갖는다&lt;/span&gt;&lt;/div&gt;&lt;div style=&quot;font-size: 17px;&quot;&gt;&lt;span style=&quot;white-space-collapse: collapse; font-size: 17px;&quot;&gt;&lt;span style=&quot;white-space-collapse: preserve; font-size: 17px;&quot;&gt;&#x9;&lt;/span&gt;- 주민등록번호 -&amp;gt; 소유자이름 : 사람마다 고유한 주민등록번호가 있다.&lt;/span&gt;&lt;/div&gt;&lt;div style=&quot;font-size: 17px;&quot;&gt;```&lt;/div&gt;&lt;div style=&quot;font-size: 17px;&quot;&gt;&lt;br style=&quot;font-size: 17px;&quot;&gt;&lt;/div&gt;&lt;div style=&quot;font-size: 17px;&quot;&gt;1. 함수 종속성 다이어그램을 그리시오.&lt;/div&gt;&lt;div style=&quot;font-size: 17px;&quot;&gt;2. 테이블을 분해하시오.&lt;/div&gt;" style="text;html=1;align=left;verticalAlign=middle;resizable=0;points=[];autosize=1;strokeColor=none;fillColor=none;fontStyle=1;fontSize=17;" parent="1" vertex="1">
          <mxGeometry x="-160" y="-280" width="810" height="360" as="geometry" />
        </mxCell>
        <mxCell id="ZYwrATI4QdThfDaMQRqj-4" value="" style="edgeStyle=elbowEdgeStyle;rounded=0;orthogonalLoop=1;jettySize=auto;html=1;" parent="1" source="ZYwrATI4QdThfDaMQRqj-1" target="ZYwrATI4QdThfDaMQRqj-3" edge="1">
          <mxGeometry relative="1" as="geometry" />
        </mxCell>
        <mxCell id="ZYwrATI4QdThfDaMQRqj-8" value="" style="edgeStyle=orthogonalEdgeStyle;rounded=0;orthogonalLoop=1;jettySize=auto;html=1;" parent="1" source="ZYwrATI4QdThfDaMQRqj-1" target="ZYwrATI4QdThfDaMQRqj-7" edge="1">
          <mxGeometry relative="1" as="geometry" />
        </mxCell>
        <mxCell id="ZYwrATI4QdThfDaMQRqj-1" value="필지번호" style="rounded=0;whiteSpace=wrap;html=1;fontSize=16;" parent="1" vertex="1">
          <mxGeometry x="20" y="120" width="120" height="60" as="geometry" />
        </mxCell>
        <mxCell id="ZYwrATI4QdThfDaMQRqj-10" value="" style="edgeStyle=orthogonalEdgeStyle;rounded=0;orthogonalLoop=1;jettySize=auto;html=1;" parent="1" source="ZYwrATI4QdThfDaMQRqj-2" target="ZYwrATI4QdThfDaMQRqj-9" edge="1">
          <mxGeometry relative="1" as="geometry" />
        </mxCell>
        <mxCell id="ZYwrATI4QdThfDaMQRqj-2" value="주민등록번호" style="rounded=0;whiteSpace=wrap;html=1;fontSize=16;" parent="1" vertex="1">
          <mxGeometry x="20" y="220" width="120" height="60" as="geometry" />
        </mxCell>
        <mxCell id="ZYwrATI4QdThfDaMQRqj-3" value="주소" style="rounded=0;whiteSpace=wrap;html=1;fontSize=16;" parent="1" vertex="1">
          <mxGeometry x="220" y="40" width="120" height="60" as="geometry" />
        </mxCell>
        <mxCell id="ZYwrATI4QdThfDaMQRqj-7" value="공시지가" style="rounded=0;whiteSpace=wrap;html=1;fontSize=16;" parent="1" vertex="1">
          <mxGeometry x="220" y="120" width="120" height="60" as="geometry" />
        </mxCell>
        <mxCell id="ZYwrATI4QdThfDaMQRqj-12" value="" style="edgeStyle=orthogonalEdgeStyle;rounded=0;orthogonalLoop=1;jettySize=auto;html=1;startArrow=classic;startFill=1;" parent="1" source="ZYwrATI4QdThfDaMQRqj-9" target="ZYwrATI4QdThfDaMQRqj-11" edge="1">
          <mxGeometry relative="1" as="geometry" />
        </mxCell>
        <mxCell id="ZYwrATI4QdThfDaMQRqj-9" value="소유자 이름" style="rounded=0;whiteSpace=wrap;html=1;fontSize=16;" parent="1" vertex="1">
          <mxGeometry x="220" y="220" width="120" height="60" as="geometry" />
        </mxCell>
        <mxCell id="ZYwrATI4QdThfDaMQRqj-11" value="전화번호" style="rounded=0;whiteSpace=wrap;html=1;fontSize=16;" parent="1" vertex="1">
          <mxGeometry x="420" y="220" width="120" height="60" as="geometry" />
        </mxCell>
        <mxCell id="ZYwrATI4QdThfDaMQRqj-13" value="&lt;b&gt;소유자&lt;/b&gt; (&lt;u&gt;주민등록번호(PK)&lt;/u&gt;, 소유자 이름, 전화번호)&lt;div&gt;&lt;b&gt;부동산&lt;/b&gt; (&lt;u&gt;필지번호(PK)&lt;/u&gt;, 주소, 공시지가, 주민등록번호(FK))&lt;/div&gt;" style="text;html=1;align=left;verticalAlign=middle;resizable=0;points=[];autosize=1;strokeColor=none;fillColor=none;fontSize=17;" parent="1" vertex="1">
          <mxGeometry x="20" y="340" width="460" height="50" as="geometry" />
        </mxCell>
        <mxCell id="ZYwrATI4QdThfDaMQRqj-14" value="필지가 공동소유인 경우" style="text;html=1;align=center;verticalAlign=middle;resizable=0;points=[];autosize=1;strokeColor=none;fillColor=none;fontStyle=1;fontSize=17;" parent="1" vertex="1">
          <mxGeometry x="-160" y="420" width="200" height="30" as="geometry" />
        </mxCell>
        <mxCell id="ZYwrATI4QdThfDaMQRqj-15" value="" style="edgeStyle=elbowEdgeStyle;rounded=0;orthogonalLoop=1;jettySize=auto;html=1;" parent="1" source="ZYwrATI4QdThfDaMQRqj-17" target="ZYwrATI4QdThfDaMQRqj-20" edge="1">
          <mxGeometry relative="1" as="geometry" />
        </mxCell>
        <mxCell id="ZYwrATI4QdThfDaMQRqj-16" value="" style="edgeStyle=orthogonalEdgeStyle;rounded=0;orthogonalLoop=1;jettySize=auto;html=1;" parent="1" source="ZYwrATI4QdThfDaMQRqj-17" target="ZYwrATI4QdThfDaMQRqj-21" edge="1">
          <mxGeometry relative="1" as="geometry" />
        </mxCell>
        <mxCell id="ZYwrATI4QdThfDaMQRqj-17" value="필지번호" style="rounded=0;whiteSpace=wrap;html=1;fontSize=16;" parent="1" vertex="1">
          <mxGeometry x="10" y="510" width="120" height="60" as="geometry" />
        </mxCell>
        <mxCell id="ZYwrATI4QdThfDaMQRqj-18" value="" style="edgeStyle=orthogonalEdgeStyle;rounded=0;orthogonalLoop=1;jettySize=auto;html=1;" parent="1" source="ZYwrATI4QdThfDaMQRqj-19" target="ZYwrATI4QdThfDaMQRqj-23" edge="1">
          <mxGeometry relative="1" as="geometry" />
        </mxCell>
        <mxCell id="ZYwrATI4QdThfDaMQRqj-19" value="주민등록번호" style="rounded=0;whiteSpace=wrap;html=1;fontSize=16;" parent="1" vertex="1">
          <mxGeometry x="10" y="610" width="120" height="60" as="geometry" />
        </mxCell>
        <mxCell id="ZYwrATI4QdThfDaMQRqj-20" value="주소" style="rounded=0;whiteSpace=wrap;html=1;fontSize=16;" parent="1" vertex="1">
          <mxGeometry x="210" y="430" width="120" height="60" as="geometry" />
        </mxCell>
        <mxCell id="ZYwrATI4QdThfDaMQRqj-21" value="공시지가" style="rounded=0;whiteSpace=wrap;html=1;fontSize=16;" parent="1" vertex="1">
          <mxGeometry x="210" y="510" width="120" height="60" as="geometry" />
        </mxCell>
        <mxCell id="ZYwrATI4QdThfDaMQRqj-22" value="" style="edgeStyle=orthogonalEdgeStyle;rounded=0;orthogonalLoop=1;jettySize=auto;html=1;startArrow=classic;startFill=1;" parent="1" source="ZYwrATI4QdThfDaMQRqj-23" target="ZYwrATI4QdThfDaMQRqj-24" edge="1">
          <mxGeometry relative="1" as="geometry" />
        </mxCell>
        <mxCell id="ZYwrATI4QdThfDaMQRqj-23" value="소유자 이름" style="rounded=0;whiteSpace=wrap;html=1;fontSize=16;" parent="1" vertex="1">
          <mxGeometry x="210" y="610" width="120" height="60" as="geometry" />
        </mxCell>
        <mxCell id="ZYwrATI4QdThfDaMQRqj-24" value="전화번호" style="rounded=0;whiteSpace=wrap;html=1;fontSize=16;" parent="1" vertex="1">
          <mxGeometry x="410" y="610" width="120" height="60" as="geometry" />
        </mxCell>
        <mxCell id="ZYwrATI4QdThfDaMQRqj-26" value="" style="rounded=0;whiteSpace=wrap;html=1;fillColor=none;" parent="1" vertex="1">
          <mxGeometry x="-10" y="480" width="160" height="220" as="geometry" />
        </mxCell>
        <mxCell id="ZYwrATI4QdThfDaMQRqj-27" value="&lt;div&gt;&lt;b&gt;부동산&lt;/b&gt;&amp;nbsp;(&lt;u&gt;필지번호(PK)&lt;/u&gt;, 주소, 공시지가)&lt;b&gt;&lt;br&gt;&lt;/b&gt;&lt;/div&gt;&lt;div&gt;&lt;b&gt;부동산소유자&amp;nbsp;&lt;/b&gt;(&lt;u&gt;필지번호(PK)&lt;/u&gt;, 주민등록번호)&lt;/div&gt;&lt;b&gt;소유자&lt;/b&gt; (&lt;u&gt;주민등록번호(PK)&lt;/u&gt;, 소유자 이름, 전화번호)" style="text;html=1;align=left;verticalAlign=middle;resizable=0;points=[];autosize=1;strokeColor=none;fillColor=none;fontSize=17;" parent="1" vertex="1">
          <mxGeometry x="10" y="710" width="400" height="70" as="geometry" />
        </mxCell>
      </root>
    </mxGraphModel>
  </diagram>
  <diagram id="BBivojL-hNmHqKT4qnnD" name="배송 릴레이션 정규화">
    <mxGraphModel dx="1434" dy="2013" grid="1" gridSize="10" guides="1" tooltips="1" connect="1" arrows="1" fold="1" page="1" pageScale="1" pageWidth="827" pageHeight="1169" math="0" shadow="0">
      <root>
        <mxCell id="0" />
        <mxCell id="1" parent="0" />
        <mxCell id="gtLMjYQGvlEGYtGbYwD2-6" value="" style="rounded=0;whiteSpace=wrap;html=1;fillColor=none;" parent="1" vertex="1">
          <mxGeometry x="150" y="410" width="160" height="180" as="geometry" />
        </mxCell>
        <mxCell id="jWS40SqH7NtqFrrCKvh--1" value="&lt;span style=&quot;color: rgb(13, 13, 13); font-family: Söhne, ui-sans-serif, system-ui, -apple-system, &amp;quot;Segoe UI&amp;quot;, Roboto, Ubuntu, Cantarell, &amp;quot;Noto Sans&amp;quot;, sans-serif, &amp;quot;Helvetica Neue&amp;quot;, Arial, &amp;quot;Apple Color Emoji&amp;quot;, &amp;quot;Segoe UI Emoji&amp;quot;, &amp;quot;Segoe UI Symbol&amp;quot;, &amp;quot;Noto Color Emoji&amp;quot;; font-size: 18px; font-style: normal; font-variant-ligatures: normal; font-variant-caps: normal; font-weight: 400; letter-spacing: normal; orphans: 2; text-align: start; text-indent: 0px; text-transform: none; widows: 2; word-spacing: 0px; -webkit-text-stroke-width: 0px; white-space: pre-wrap; background-color: rgb(255, 255, 255); text-decoration-thickness: initial; text-decoration-style: initial; text-decoration-color: initial; float: none; display: inline !important;&quot;&gt;다음은 배송(Shipping) 물품에 대한 릴레이션이다. 물음에 답하시오.&#xa;&#xa;릴레이션: &#xa;Shipping(shipname, shiptype, voyageID, cargo, port, date)&#xa;&#xa;함수 종속성: &#xa;shipname -&amp;gt; shiptype&#xa;voyageID -&amp;gt; shipname, cargo&#xa;{shipname, date} -&amp;gt; voyageID, port&#xa;&#xa;1. 함수 종속성 다이어그램을 그리시오.&#xa;2. 후보키를 찾으시오&#xa;3. 제2정규형으로 정규화하시오.&#xa;4. 제3정규형으로 정규화하시오&#xa;5. BCNF로 정규화하시오&lt;/span&gt;" style="text;whiteSpace=wrap;html=1;fontSize=18;" parent="1" vertex="1">
          <mxGeometry x="70" y="-40" width="580" height="350" as="geometry" />
        </mxCell>
        <mxCell id="gtLMjYQGvlEGYtGbYwD2-5" value="" style="rounded=0;orthogonalLoop=1;jettySize=auto;html=1;" parent="1" source="gtLMjYQGvlEGYtGbYwD2-1" target="gtLMjYQGvlEGYtGbYwD2-4" edge="1">
          <mxGeometry relative="1" as="geometry" />
        </mxCell>
        <mxCell id="gtLMjYQGvlEGYtGbYwD2-1" value="shipname" style="rounded=0;whiteSpace=wrap;html=1;fontSize=16;" parent="1" vertex="1">
          <mxGeometry x="170" y="430" width="120" height="60" as="geometry" />
        </mxCell>
        <mxCell id="gtLMjYQGvlEGYtGbYwD2-2" value="date" style="rounded=0;whiteSpace=wrap;html=1;fontSize=16;" parent="1" vertex="1">
          <mxGeometry x="170" y="510" width="120" height="60" as="geometry" />
        </mxCell>
        <mxCell id="gtLMjYQGvlEGYtGbYwD2-4" value="shiptype" style="rounded=0;whiteSpace=wrap;html=1;fontSize=16;" parent="1" vertex="1">
          <mxGeometry x="370" y="400" width="120" height="60" as="geometry" />
        </mxCell>
        <mxCell id="gtLMjYQGvlEGYtGbYwD2-8" value="" style="rounded=0;orthogonalLoop=1;jettySize=auto;html=1;" parent="1" source="gtLMjYQGvlEGYtGbYwD2-6" target="gtLMjYQGvlEGYtGbYwD2-7" edge="1">
          <mxGeometry relative="1" as="geometry" />
        </mxCell>
        <mxCell id="gtLMjYQGvlEGYtGbYwD2-13" value="" style="rounded=0;orthogonalLoop=1;jettySize=auto;html=1;" parent="1" source="gtLMjYQGvlEGYtGbYwD2-6" target="gtLMjYQGvlEGYtGbYwD2-11" edge="1">
          <mxGeometry relative="1" as="geometry" />
        </mxCell>
        <mxCell id="gtLMjYQGvlEGYtGbYwD2-10" value="" style="rounded=0;orthogonalLoop=1;jettySize=auto;html=1;" parent="1" source="gtLMjYQGvlEGYtGbYwD2-7" target="gtLMjYQGvlEGYtGbYwD2-9" edge="1">
          <mxGeometry relative="1" as="geometry" />
        </mxCell>
        <mxCell id="gtLMjYQGvlEGYtGbYwD2-15" value="" style="rounded=0;orthogonalLoop=1;jettySize=auto;html=1;" parent="1" source="gtLMjYQGvlEGYtGbYwD2-7" target="gtLMjYQGvlEGYtGbYwD2-1" edge="1">
          <mxGeometry relative="1" as="geometry">
            <mxPoint x="460" y="490" as="targetPoint" />
          </mxGeometry>
        </mxCell>
        <mxCell id="gtLMjYQGvlEGYtGbYwD2-7" value="voyageID" style="rounded=0;whiteSpace=wrap;html=1;fontSize=16;" parent="1" vertex="1">
          <mxGeometry x="384" y="500" width="120" height="60" as="geometry" />
        </mxCell>
        <mxCell id="gtLMjYQGvlEGYtGbYwD2-9" value="cargo" style="rounded=0;whiteSpace=wrap;html=1;fontSize=16;" parent="1" vertex="1">
          <mxGeometry x="580" y="500" width="120" height="60" as="geometry" />
        </mxCell>
        <mxCell id="gtLMjYQGvlEGYtGbYwD2-11" value="port" style="rounded=0;whiteSpace=wrap;html=1;fontSize=16;" parent="1" vertex="1">
          <mxGeometry x="384" y="590" width="120" height="60" as="geometry" />
        </mxCell>
        <mxCell id="KQdlaq4FczQMzV1axYGo-2" value="&lt;b style=&quot;font-size: 16px;&quot;&gt;1. 함수종속성 다이어그램&lt;/b&gt;" style="text;html=1;align=center;verticalAlign=middle;resizable=0;points=[];autosize=1;strokeColor=none;fillColor=none;fontSize=16;" parent="1" vertex="1">
          <mxGeometry x="70" y="328" width="210" height="30" as="geometry" />
        </mxCell>
        <mxCell id="KQdlaq4FczQMzV1axYGo-3" value="&lt;b style=&quot;font-size: 16px;&quot;&gt;3. 2정규형 (부분 함수 종속성 제거)&lt;/b&gt;" style="text;html=1;align=left;verticalAlign=middle;resizable=0;points=[];autosize=1;strokeColor=none;fillColor=none;fontSize=16;" parent="1" vertex="1">
          <mxGeometry x="85" y="760" width="270" height="30" as="geometry" />
        </mxCell>
        <mxCell id="KQdlaq4FczQMzV1axYGo-17" value="&lt;b style=&quot;font-size: 16px;&quot;&gt;4. 3정규형 (이행 함수 종속성 제거)&lt;/b&gt;" style="text;html=1;align=left;verticalAlign=middle;resizable=0;points=[];autosize=1;strokeColor=none;fillColor=none;fontSize=16;" parent="1" vertex="1">
          <mxGeometry x="40" y="1160" width="270" height="30" as="geometry" />
        </mxCell>
        <mxCell id="KQdlaq4FczQMzV1axYGo-20" value="&lt;b style=&quot;font-size: 16px;&quot;&gt;5. BCNF정규형 (결정자에 의한 종속성 제거)&lt;/b&gt;" style="text;html=1;align=left;verticalAlign=middle;resizable=0;points=[];autosize=1;strokeColor=none;fillColor=none;fontSize=16;" parent="1" vertex="1">
          <mxGeometry x="35" y="1610" width="340" height="30" as="geometry" />
        </mxCell>
        <mxCell id="KQdlaq4FczQMzV1axYGo-39" value="Ship&lt;span style=&quot;font-weight: normal;&quot;&gt;(&lt;u&gt;shipname&lt;/u&gt;, shiptype)&lt;/span&gt;" style="text;html=1;align=center;verticalAlign=middle;resizable=0;points=[];autosize=1;strokeColor=none;fillColor=none;fontSize=16;fontStyle=1" parent="1" vertex="1">
          <mxGeometry x="80" y="1650" width="200" height="30" as="geometry" />
        </mxCell>
        <mxCell id="KQdlaq4FczQMzV1axYGo-40" value="VoyageDetail&lt;span style=&quot;font-weight: normal;&quot;&gt;(&lt;u&gt;voyageID&lt;/u&gt;, &lt;u&gt;date&lt;/u&gt;, port)&lt;/span&gt;" style="text;html=1;align=center;verticalAlign=middle;resizable=0;points=[];autosize=1;strokeColor=none;fillColor=none;fontSize=16;fontStyle=1" parent="1" vertex="1">
          <mxGeometry x="95" y="1770" width="270" height="30" as="geometry" />
        </mxCell>
        <mxCell id="KQdlaq4FczQMzV1axYGo-41" value="Voyage&lt;span style=&quot;font-weight: normal;&quot;&gt;(&lt;u&gt;voyageID&lt;/u&gt;,&amp;nbsp;&lt;/span&gt;&lt;span style=&quot;font-weight: 400;&quot;&gt;shipname, cargo)&lt;/span&gt;" style="text;html=1;align=center;verticalAlign=middle;resizable=0;points=[];autosize=1;strokeColor=none;fillColor=none;fontSize=16;fontStyle=1" parent="1" vertex="1">
          <mxGeometry x="530" y="1865" width="280" height="30" as="geometry" />
        </mxCell>
        <mxCell id="KQdlaq4FczQMzV1axYGo-42" value="Cargo&lt;span style=&quot;font-weight: normal;&quot;&gt;(&lt;u&gt;voyageID&lt;/u&gt;, cargo)&lt;/span&gt;" style="text;html=1;align=center;verticalAlign=middle;resizable=0;points=[];autosize=1;strokeColor=none;fillColor=none;fontSize=16;fontStyle=1" parent="1" vertex="1">
          <mxGeometry x="498.5" y="1290" width="190" height="30" as="geometry" />
        </mxCell>
        <mxCell id="KQdlaq4FczQMzV1axYGo-43" value="Ship&lt;span style=&quot;font-weight: normal;&quot;&gt;(&lt;u&gt;shipname&lt;/u&gt;, shiptype)&lt;/span&gt;" style="text;html=1;align=center;verticalAlign=middle;resizable=0;points=[];autosize=1;strokeColor=none;fillColor=none;fontSize=16;fontStyle=1" parent="1" vertex="1">
          <mxGeometry x="105" y="1190" width="200" height="30" as="geometry" />
        </mxCell>
        <mxCell id="KQdlaq4FczQMzV1axYGo-44" value="Voyage&lt;span style=&quot;font-weight: normal;&quot;&gt;(&lt;u&gt;shipname&lt;/u&gt;, &lt;u&gt;date&lt;/u&gt;, voyageID, port)&lt;/span&gt;" style="text;html=1;align=center;verticalAlign=middle;resizable=0;points=[];autosize=1;strokeColor=none;fillColor=none;fontSize=16;fontStyle=1" parent="1" vertex="1">
          <mxGeometry x="100" y="1290" width="310" height="30" as="geometry" />
        </mxCell>
        <mxCell id="KQdlaq4FczQMzV1axYGo-45" value="Voyage&lt;span style=&quot;font-weight: normal;&quot;&gt;(&lt;u&gt;shipname&lt;/u&gt;, &lt;u&gt;date&lt;/u&gt;, voyageID, port, cargo)&lt;/span&gt;" style="text;html=1;align=center;verticalAlign=middle;resizable=0;points=[];autosize=1;strokeColor=none;fillColor=none;fontSize=16;fontStyle=1" parent="1" vertex="1">
          <mxGeometry x="135" y="890" width="360" height="30" as="geometry" />
        </mxCell>
        <mxCell id="KQdlaq4FczQMzV1axYGo-46" value="Ship&lt;span style=&quot;font-weight: normal;&quot;&gt;(&lt;u&gt;shipname&lt;/u&gt;, shiptype)&lt;/span&gt;" style="text;html=1;align=center;verticalAlign=middle;resizable=0;points=[];autosize=1;strokeColor=none;fillColor=none;fontSize=16;fontStyle=1" parent="1" vertex="1">
          <mxGeometry x="140" y="790" width="200" height="30" as="geometry" />
        </mxCell>
        <mxCell id="KQdlaq4FczQMzV1axYGo-47" value="Voyage&lt;span style=&quot;font-weight: normal;&quot;&gt;(&lt;u&gt;shipname&lt;/u&gt;, &lt;u&gt;date&lt;/u&gt;, shiptype, voyageID, port, cargo)&lt;/span&gt;" style="text;html=1;align=center;verticalAlign=middle;resizable=0;points=[];autosize=1;strokeColor=none;fillColor=none;fontSize=16;fontStyle=1" parent="1" vertex="1">
          <mxGeometry x="160" y="370" width="430" height="30" as="geometry" />
        </mxCell>
        <mxCell id="KQdlaq4FczQMzV1axYGo-48" value="&lt;b style=&quot;font-size: 16px;&quot;&gt;2. 후보키&lt;/b&gt;" style="text;html=1;align=left;verticalAlign=middle;resizable=0;points=[];autosize=1;strokeColor=none;fillColor=none;fontSize=16;" parent="1" vertex="1">
          <mxGeometry x="90.5" y="710" width="90" height="30" as="geometry" />
        </mxCell>
        <mxCell id="KQdlaq4FczQMzV1axYGo-55" value="" style="html=1;shadow=0;dashed=0;align=center;verticalAlign=middle;shape=mxgraph.arrows2.arrow;dy=0.6;dx=40;notch=0;rotation=90;" parent="1" vertex="1">
          <mxGeometry x="640" y="1815" width="55" height="40" as="geometry" />
        </mxCell>
        <mxCell id="-a4_SDbCGDsIFxmoEFt6-1" value="{shipname, date}" style="text;html=1;align=center;verticalAlign=middle;resizable=0;points=[];autosize=1;strokeColor=none;fillColor=none;fontSize=18;" parent="1" vertex="1">
          <mxGeometry x="190" y="700" width="160" height="40" as="geometry" />
        </mxCell>
        <mxCell id="-a4_SDbCGDsIFxmoEFt6-2" value="" style="rounded=0;whiteSpace=wrap;html=1;fillColor=none;" parent="1" vertex="1">
          <mxGeometry x="123.5" y="2310" width="160" height="180" as="geometry" />
        </mxCell>
        <mxCell id="-a4_SDbCGDsIFxmoEFt6-3" value="" style="rounded=0;orthogonalLoop=1;jettySize=auto;html=1;exitX=1;exitY=0.5;exitDx=0;exitDy=0;" parent="1" source="-a4_SDbCGDsIFxmoEFt6-14" target="-a4_SDbCGDsIFxmoEFt6-6" edge="1">
          <mxGeometry relative="1" as="geometry" />
        </mxCell>
        <mxCell id="-a4_SDbCGDsIFxmoEFt6-4" value="shipname" style="rounded=0;whiteSpace=wrap;html=1;fontSize=16;" parent="1" vertex="1">
          <mxGeometry x="143.5" y="2330" width="120" height="60" as="geometry" />
        </mxCell>
        <mxCell id="-a4_SDbCGDsIFxmoEFt6-5" value="date" style="rounded=0;whiteSpace=wrap;html=1;fontSize=16;" parent="1" vertex="1">
          <mxGeometry x="143.5" y="2410" width="120" height="60" as="geometry" />
        </mxCell>
        <mxCell id="-a4_SDbCGDsIFxmoEFt6-6" value="shiptype" style="rounded=0;whiteSpace=wrap;html=1;fontSize=16;" parent="1" vertex="1">
          <mxGeometry x="353.5" y="2210" width="120" height="60" as="geometry" />
        </mxCell>
        <mxCell id="-a4_SDbCGDsIFxmoEFt6-7" value="" style="rounded=0;orthogonalLoop=1;jettySize=auto;html=1;" parent="1" source="-a4_SDbCGDsIFxmoEFt6-2" target="-a4_SDbCGDsIFxmoEFt6-11" edge="1">
          <mxGeometry relative="1" as="geometry" />
        </mxCell>
        <mxCell id="-a4_SDbCGDsIFxmoEFt6-8" value="" style="rounded=0;orthogonalLoop=1;jettySize=auto;html=1;" parent="1" source="-a4_SDbCGDsIFxmoEFt6-2" target="-a4_SDbCGDsIFxmoEFt6-13" edge="1">
          <mxGeometry relative="1" as="geometry" />
        </mxCell>
        <mxCell id="-a4_SDbCGDsIFxmoEFt6-9" value="" style="rounded=0;orthogonalLoop=1;jettySize=auto;html=1;" parent="1" source="-a4_SDbCGDsIFxmoEFt6-11" target="-a4_SDbCGDsIFxmoEFt6-12" edge="1">
          <mxGeometry relative="1" as="geometry" />
        </mxCell>
        <mxCell id="-a4_SDbCGDsIFxmoEFt6-10" value="" style="rounded=0;orthogonalLoop=1;jettySize=auto;html=1;" parent="1" source="-a4_SDbCGDsIFxmoEFt6-11" target="-a4_SDbCGDsIFxmoEFt6-4" edge="1">
          <mxGeometry relative="1" as="geometry">
            <mxPoint x="433.5" y="2390" as="targetPoint" />
          </mxGeometry>
        </mxCell>
        <mxCell id="-a4_SDbCGDsIFxmoEFt6-11" value="voyageID" style="rounded=0;whiteSpace=wrap;html=1;fontSize=16;" parent="1" vertex="1">
          <mxGeometry x="357.5" y="2400" width="120" height="60" as="geometry" />
        </mxCell>
        <mxCell id="-a4_SDbCGDsIFxmoEFt6-12" value="cargo" style="rounded=0;whiteSpace=wrap;html=1;fontSize=16;" parent="1" vertex="1">
          <mxGeometry x="553.5" y="2400" width="120" height="60" as="geometry" />
        </mxCell>
        <mxCell id="-a4_SDbCGDsIFxmoEFt6-13" value="port" style="rounded=0;whiteSpace=wrap;html=1;fontSize=16;" parent="1" vertex="1">
          <mxGeometry x="358.5" y="2480" width="120" height="60" as="geometry" />
        </mxCell>
        <mxCell id="-a4_SDbCGDsIFxmoEFt6-14" value="shipname" style="rounded=0;whiteSpace=wrap;html=1;fontSize=16;" parent="1" vertex="1">
          <mxGeometry x="143.5" y="2210" width="120" height="60" as="geometry" />
        </mxCell>
        <mxCell id="-a4_SDbCGDsIFxmoEFt6-15" value="&lt;b style=&quot;font-size: 16px;&quot;&gt;3. 2정규형 (부분 함수 종속성 제거)&lt;/b&gt;" style="text;html=1;align=left;verticalAlign=middle;resizable=0;points=[];autosize=1;strokeColor=none;fillColor=none;fontSize=16;" parent="1" vertex="1">
          <mxGeometry x="88.5" y="2150" width="270" height="30" as="geometry" />
        </mxCell>
        <mxCell id="-a4_SDbCGDsIFxmoEFt6-16" value="" style="rounded=0;whiteSpace=wrap;html=1;fillColor=none;" parent="1" vertex="1">
          <mxGeometry x="78.5" y="2710" width="160" height="180" as="geometry" />
        </mxCell>
        <mxCell id="-a4_SDbCGDsIFxmoEFt6-17" value="" style="rounded=0;orthogonalLoop=1;jettySize=auto;html=1;exitX=1;exitY=0.5;exitDx=0;exitDy=0;" parent="1" source="-a4_SDbCGDsIFxmoEFt6-27" target="-a4_SDbCGDsIFxmoEFt6-20" edge="1">
          <mxGeometry relative="1" as="geometry" />
        </mxCell>
        <mxCell id="-a4_SDbCGDsIFxmoEFt6-18" value="shipname" style="rounded=0;whiteSpace=wrap;html=1;fontSize=16;" parent="1" vertex="1">
          <mxGeometry x="98.5" y="2730" width="120" height="60" as="geometry" />
        </mxCell>
        <mxCell id="-a4_SDbCGDsIFxmoEFt6-19" value="date" style="rounded=0;whiteSpace=wrap;html=1;fontSize=16;" parent="1" vertex="1">
          <mxGeometry x="98.5" y="2810" width="120" height="60" as="geometry" />
        </mxCell>
        <mxCell id="-a4_SDbCGDsIFxmoEFt6-20" value="shiptype" style="rounded=0;whiteSpace=wrap;html=1;fontSize=16;" parent="1" vertex="1">
          <mxGeometry x="308.5" y="2610" width="120" height="60" as="geometry" />
        </mxCell>
        <mxCell id="-a4_SDbCGDsIFxmoEFt6-21" value="" style="rounded=0;orthogonalLoop=1;jettySize=auto;html=1;" parent="1" source="-a4_SDbCGDsIFxmoEFt6-16" target="-a4_SDbCGDsIFxmoEFt6-24" edge="1">
          <mxGeometry relative="1" as="geometry" />
        </mxCell>
        <mxCell id="-a4_SDbCGDsIFxmoEFt6-22" value="" style="rounded=0;orthogonalLoop=1;jettySize=auto;html=1;" parent="1" source="-a4_SDbCGDsIFxmoEFt6-16" target="-a4_SDbCGDsIFxmoEFt6-26" edge="1">
          <mxGeometry relative="1" as="geometry" />
        </mxCell>
        <mxCell id="-a4_SDbCGDsIFxmoEFt6-23" value="" style="rounded=0;orthogonalLoop=1;jettySize=auto;html=1;" parent="1" source="-a4_SDbCGDsIFxmoEFt6-24" target="-a4_SDbCGDsIFxmoEFt6-18" edge="1">
          <mxGeometry relative="1" as="geometry">
            <mxPoint x="388.5" y="2790" as="targetPoint" />
          </mxGeometry>
        </mxCell>
        <mxCell id="-a4_SDbCGDsIFxmoEFt6-24" value="voyageID" style="rounded=0;whiteSpace=wrap;html=1;fontSize=16;" parent="1" vertex="1">
          <mxGeometry x="312.5" y="2800" width="120" height="60" as="geometry" />
        </mxCell>
        <mxCell id="-a4_SDbCGDsIFxmoEFt6-25" value="cargo" style="rounded=0;whiteSpace=wrap;html=1;fontSize=16;" parent="1" vertex="1">
          <mxGeometry x="643.5" y="2710" width="120" height="60" as="geometry" />
        </mxCell>
        <mxCell id="-a4_SDbCGDsIFxmoEFt6-26" value="port" style="rounded=0;whiteSpace=wrap;html=1;fontSize=16;" parent="1" vertex="1">
          <mxGeometry x="312.5" y="2890" width="120" height="60" as="geometry" />
        </mxCell>
        <mxCell id="-a4_SDbCGDsIFxmoEFt6-27" value="shipname" style="rounded=0;whiteSpace=wrap;html=1;fontSize=16;" parent="1" vertex="1">
          <mxGeometry x="98.5" y="2610" width="120" height="60" as="geometry" />
        </mxCell>
        <mxCell id="-a4_SDbCGDsIFxmoEFt6-28" value="" style="edgeStyle=orthogonalEdgeStyle;rounded=0;orthogonalLoop=1;jettySize=auto;html=1;" parent="1" source="-a4_SDbCGDsIFxmoEFt6-29" target="-a4_SDbCGDsIFxmoEFt6-25" edge="1">
          <mxGeometry relative="1" as="geometry" />
        </mxCell>
        <mxCell id="-a4_SDbCGDsIFxmoEFt6-29" value="voyageID" style="rounded=0;whiteSpace=wrap;html=1;fontSize=16;" parent="1" vertex="1">
          <mxGeometry x="473.5" y="2710" width="120" height="60" as="geometry" />
        </mxCell>
        <mxCell id="-a4_SDbCGDsIFxmoEFt6-30" value="" style="rounded=0;whiteSpace=wrap;html=1;fillColor=none;" parent="1" vertex="1">
          <mxGeometry x="78.5" y="3190" width="160" height="180" as="geometry" />
        </mxCell>
        <mxCell id="-a4_SDbCGDsIFxmoEFt6-31" value="" style="rounded=0;orthogonalLoop=1;jettySize=auto;html=1;exitX=1;exitY=0.5;exitDx=0;exitDy=0;" parent="1" source="-a4_SDbCGDsIFxmoEFt6-38" target="-a4_SDbCGDsIFxmoEFt6-33" edge="1">
          <mxGeometry relative="1" as="geometry" />
        </mxCell>
        <mxCell id="-a4_SDbCGDsIFxmoEFt6-32" value="date" style="rounded=0;whiteSpace=wrap;html=1;fontSize=16;" parent="1" vertex="1">
          <mxGeometry x="98.5" y="3290" width="120" height="60" as="geometry" />
        </mxCell>
        <mxCell id="-a4_SDbCGDsIFxmoEFt6-33" value="shiptype" style="rounded=0;whiteSpace=wrap;html=1;fontSize=16;" parent="1" vertex="1">
          <mxGeometry x="285" y="3080" width="120" height="60" as="geometry" />
        </mxCell>
        <mxCell id="-a4_SDbCGDsIFxmoEFt6-34" value="" style="rounded=0;orthogonalLoop=1;jettySize=auto;html=1;" parent="1" source="-a4_SDbCGDsIFxmoEFt6-30" target="-a4_SDbCGDsIFxmoEFt6-37" edge="1">
          <mxGeometry relative="1" as="geometry" />
        </mxCell>
        <mxCell id="-a4_SDbCGDsIFxmoEFt6-35" value="voyageID" style="rounded=0;whiteSpace=wrap;html=1;fontSize=16;" parent="1" vertex="1">
          <mxGeometry x="98.5" y="3210" width="120" height="60" as="geometry" />
        </mxCell>
        <mxCell id="-a4_SDbCGDsIFxmoEFt6-36" value="cargo" style="rounded=0;whiteSpace=wrap;html=1;fontSize=16;" parent="1" vertex="1">
          <mxGeometry x="623.5" y="3080" width="120" height="60" as="geometry" />
        </mxCell>
        <mxCell id="-a4_SDbCGDsIFxmoEFt6-37" value="port" style="rounded=0;whiteSpace=wrap;html=1;fontSize=16;" parent="1" vertex="1">
          <mxGeometry x="283.5" y="3250" width="120" height="60" as="geometry" />
        </mxCell>
        <mxCell id="-a4_SDbCGDsIFxmoEFt6-38" value="shipname" style="rounded=0;whiteSpace=wrap;html=1;fontSize=16;" parent="1" vertex="1">
          <mxGeometry x="75" y="3080" width="120" height="60" as="geometry" />
        </mxCell>
        <mxCell id="-a4_SDbCGDsIFxmoEFt6-39" value="" style="edgeStyle=orthogonalEdgeStyle;rounded=0;orthogonalLoop=1;jettySize=auto;html=1;" parent="1" source="-a4_SDbCGDsIFxmoEFt6-40" target="-a4_SDbCGDsIFxmoEFt6-36" edge="1">
          <mxGeometry relative="1" as="geometry" />
        </mxCell>
        <mxCell id="-a4_SDbCGDsIFxmoEFt6-40" value="voyageID" style="rounded=0;whiteSpace=wrap;html=1;fontSize=16;" parent="1" vertex="1">
          <mxGeometry x="453.5" y="3080" width="120" height="60" as="geometry" />
        </mxCell>
        <mxCell id="-a4_SDbCGDsIFxmoEFt6-41" value="voyageID" style="rounded=0;whiteSpace=wrap;html=1;fontSize=16;" parent="1" vertex="1">
          <mxGeometry x="453.5" y="3160" width="120" height="60" as="geometry" />
        </mxCell>
        <mxCell id="-a4_SDbCGDsIFxmoEFt6-42" value="" style="rounded=0;orthogonalLoop=1;jettySize=auto;html=1;" parent="1" source="-a4_SDbCGDsIFxmoEFt6-41" target="-a4_SDbCGDsIFxmoEFt6-43" edge="1">
          <mxGeometry relative="1" as="geometry">
            <mxPoint x="529.5" y="3150" as="targetPoint" />
          </mxGeometry>
        </mxCell>
        <mxCell id="-a4_SDbCGDsIFxmoEFt6-43" value="shipname" style="rounded=0;whiteSpace=wrap;html=1;fontSize=16;" parent="1" vertex="1">
          <mxGeometry x="623.5" y="3160" width="120" height="60" as="geometry" />
        </mxCell>
        <mxCell id="-a4_SDbCGDsIFxmoEFt6-44" value="Ship&lt;span style=&quot;font-weight: normal;&quot;&gt;(&lt;u&gt;shipname&lt;/u&gt;, shiptype)&lt;/span&gt;" style="text;html=1;align=center;verticalAlign=middle;resizable=0;points=[];autosize=1;strokeColor=none;fillColor=none;fontSize=16;fontStyle=1" parent="1" vertex="1">
          <mxGeometry x="83.5" y="3040" width="200" height="30" as="geometry" />
        </mxCell>
        <mxCell id="-a4_SDbCGDsIFxmoEFt6-45" value="VoyageDetail&lt;span style=&quot;font-weight: normal;&quot;&gt;(&lt;u&gt;voyageID&lt;/u&gt;, &lt;u&gt;date&lt;/u&gt;, port)&lt;/span&gt;" style="text;html=1;align=center;verticalAlign=middle;resizable=0;points=[];autosize=1;strokeColor=none;fillColor=none;fontSize=16;fontStyle=1" parent="1" vertex="1">
          <mxGeometry x="98.5" y="3160" width="270" height="30" as="geometry" />
        </mxCell>
        <mxCell id="-a4_SDbCGDsIFxmoEFt6-46" value="Voyage&lt;span style=&quot;font-weight: normal;&quot;&gt;(&lt;u&gt;voyageID&lt;/u&gt;,&amp;nbsp;&lt;/span&gt;&lt;span style=&quot;font-weight: 400;&quot;&gt;shipname, cargo)&lt;/span&gt;" style="text;html=1;align=center;verticalAlign=middle;resizable=0;points=[];autosize=1;strokeColor=none;fillColor=none;fontSize=16;fontStyle=1" parent="1" vertex="1">
          <mxGeometry x="463.5" y="3270" width="280" height="30" as="geometry" />
        </mxCell>
        <mxCell id="-a4_SDbCGDsIFxmoEFt6-47" value="Cargo&lt;span style=&quot;font-weight: normal;&quot;&gt;(voyageID, cargo)&lt;/span&gt;" style="text;html=1;align=center;verticalAlign=middle;resizable=0;points=[];autosize=1;strokeColor=none;fillColor=none;fontSize=16;fontStyle=1" parent="1" vertex="1">
          <mxGeometry x="483.5" y="2670" width="190" height="30" as="geometry" />
        </mxCell>
        <mxCell id="-a4_SDbCGDsIFxmoEFt6-48" value="Ship&lt;span style=&quot;font-weight: normal;&quot;&gt;(&lt;u&gt;shipname&lt;/u&gt;, shiptype)&lt;/span&gt;" style="text;html=1;align=center;verticalAlign=middle;resizable=0;points=[];autosize=1;strokeColor=none;fillColor=none;fontSize=16;fontStyle=1" parent="1" vertex="1">
          <mxGeometry x="108.5" y="2580" width="200" height="30" as="geometry" />
        </mxCell>
        <mxCell id="-a4_SDbCGDsIFxmoEFt6-49" value="Voyage&lt;span style=&quot;font-weight: normal;&quot;&gt;(&lt;u&gt;shipname&lt;/u&gt;, &lt;u&gt;date&lt;/u&gt;, voyageID, port)&lt;/span&gt;" style="text;html=1;align=center;verticalAlign=middle;resizable=0;points=[];autosize=1;strokeColor=none;fillColor=none;fontSize=16;fontStyle=1" parent="1" vertex="1">
          <mxGeometry x="103.5" y="2680" width="310" height="30" as="geometry" />
        </mxCell>
        <mxCell id="-a4_SDbCGDsIFxmoEFt6-50" value="Voyage&lt;span style=&quot;font-weight: normal;&quot;&gt;(&lt;u&gt;shipname&lt;/u&gt;, &lt;u&gt;date&lt;/u&gt;, voyageID, port, cargo)&lt;/span&gt;" style="text;html=1;align=center;verticalAlign=middle;resizable=0;points=[];autosize=1;strokeColor=none;fillColor=none;fontSize=16;fontStyle=1" parent="1" vertex="1">
          <mxGeometry x="138.5" y="2280" width="360" height="30" as="geometry" />
        </mxCell>
        <mxCell id="-a4_SDbCGDsIFxmoEFt6-51" value="Ship&lt;span style=&quot;font-weight: normal;&quot;&gt;(&lt;u&gt;shipname&lt;/u&gt;, shiptype)&lt;/span&gt;" style="text;html=1;align=center;verticalAlign=middle;resizable=0;points=[];autosize=1;strokeColor=none;fillColor=none;fontSize=16;fontStyle=1" parent="1" vertex="1">
          <mxGeometry x="143.5" y="2180" width="200" height="30" as="geometry" />
        </mxCell>
        <mxCell id="-a4_SDbCGDsIFxmoEFt6-52" value="" style="edgeStyle=orthogonalEdgeStyle;rounded=0;orthogonalLoop=1;jettySize=auto;html=1;" parent="1" source="-a4_SDbCGDsIFxmoEFt6-54" target="-a4_SDbCGDsIFxmoEFt6-55" edge="1">
          <mxGeometry relative="1" as="geometry" />
        </mxCell>
        <mxCell id="-a4_SDbCGDsIFxmoEFt6-53" value="" style="rounded=0;orthogonalLoop=1;jettySize=auto;html=1;" parent="1" source="-a4_SDbCGDsIFxmoEFt6-54" target="-a4_SDbCGDsIFxmoEFt6-56" edge="1">
          <mxGeometry relative="1" as="geometry" />
        </mxCell>
        <mxCell id="-a4_SDbCGDsIFxmoEFt6-54" value="voyageID" style="rounded=0;whiteSpace=wrap;html=1;fontSize=16;" parent="1" vertex="1">
          <mxGeometry x="453.5" y="3310" width="120" height="60" as="geometry" />
        </mxCell>
        <mxCell id="-a4_SDbCGDsIFxmoEFt6-55" value="cargo" style="rounded=0;whiteSpace=wrap;html=1;fontSize=16;" parent="1" vertex="1">
          <mxGeometry x="623.5" y="3310" width="120" height="60" as="geometry" />
        </mxCell>
        <mxCell id="-a4_SDbCGDsIFxmoEFt6-56" value="shipname" style="rounded=0;whiteSpace=wrap;html=1;fontSize=16;" parent="1" vertex="1">
          <mxGeometry x="623.5" y="3400" width="120" height="60" as="geometry" />
        </mxCell>
        <mxCell id="-a4_SDbCGDsIFxmoEFt6-57" value="" style="html=1;shadow=0;dashed=0;align=center;verticalAlign=middle;shape=mxgraph.arrows2.arrow;dy=0.6;dx=40;notch=0;rotation=90;" parent="1" vertex="1">
          <mxGeometry x="573.5" y="3220" width="55" height="40" as="geometry" />
        </mxCell>
        <mxCell id="-a4_SDbCGDsIFxmoEFt6-58" value="" style="rounded=0;whiteSpace=wrap;html=1;fillColor=none;" parent="1" vertex="1">
          <mxGeometry x="170" y="940" width="160" height="180" as="geometry" />
        </mxCell>
        <mxCell id="-a4_SDbCGDsIFxmoEFt6-60" value="shipname" style="rounded=0;whiteSpace=wrap;html=1;fontSize=16;" parent="1" vertex="1">
          <mxGeometry x="190" y="960" width="120" height="60" as="geometry" />
        </mxCell>
        <mxCell id="-a4_SDbCGDsIFxmoEFt6-61" value="date" style="rounded=0;whiteSpace=wrap;html=1;fontSize=16;" parent="1" vertex="1">
          <mxGeometry x="190" y="1040" width="120" height="60" as="geometry" />
        </mxCell>
        <mxCell id="-a4_SDbCGDsIFxmoEFt6-63" value="" style="rounded=0;orthogonalLoop=1;jettySize=auto;html=1;" parent="1" source="-a4_SDbCGDsIFxmoEFt6-58" target="-a4_SDbCGDsIFxmoEFt6-67" edge="1">
          <mxGeometry relative="1" as="geometry" />
        </mxCell>
        <mxCell id="-a4_SDbCGDsIFxmoEFt6-64" value="" style="rounded=0;orthogonalLoop=1;jettySize=auto;html=1;" parent="1" source="-a4_SDbCGDsIFxmoEFt6-58" target="-a4_SDbCGDsIFxmoEFt6-69" edge="1">
          <mxGeometry relative="1" as="geometry" />
        </mxCell>
        <mxCell id="-a4_SDbCGDsIFxmoEFt6-65" value="" style="rounded=0;orthogonalLoop=1;jettySize=auto;html=1;" parent="1" source="-a4_SDbCGDsIFxmoEFt6-67" target="-a4_SDbCGDsIFxmoEFt6-68" edge="1">
          <mxGeometry relative="1" as="geometry" />
        </mxCell>
        <mxCell id="-a4_SDbCGDsIFxmoEFt6-66" value="" style="rounded=0;orthogonalLoop=1;jettySize=auto;html=1;" parent="1" source="-a4_SDbCGDsIFxmoEFt6-67" target="-a4_SDbCGDsIFxmoEFt6-60" edge="1">
          <mxGeometry relative="1" as="geometry">
            <mxPoint x="480" y="1020" as="targetPoint" />
          </mxGeometry>
        </mxCell>
        <mxCell id="-a4_SDbCGDsIFxmoEFt6-67" value="voyageID" style="rounded=0;whiteSpace=wrap;html=1;fontSize=16;" parent="1" vertex="1">
          <mxGeometry x="410" y="970" width="120" height="60" as="geometry" />
        </mxCell>
        <mxCell id="-a4_SDbCGDsIFxmoEFt6-68" value="cargo" style="rounded=0;whiteSpace=wrap;html=1;fontSize=16;" parent="1" vertex="1">
          <mxGeometry x="606" y="970" width="120" height="60" as="geometry" />
        </mxCell>
        <mxCell id="-a4_SDbCGDsIFxmoEFt6-69" value="port" style="rounded=0;whiteSpace=wrap;html=1;fontSize=16;" parent="1" vertex="1">
          <mxGeometry x="410" y="1060" width="120" height="60" as="geometry" />
        </mxCell>
        <mxCell id="-a4_SDbCGDsIFxmoEFt6-70" value="" style="rounded=0;orthogonalLoop=1;jettySize=auto;html=1;" parent="1" source="-a4_SDbCGDsIFxmoEFt6-71" target="-a4_SDbCGDsIFxmoEFt6-72" edge="1">
          <mxGeometry relative="1" as="geometry" />
        </mxCell>
        <mxCell id="-a4_SDbCGDsIFxmoEFt6-71" value="shipname" style="rounded=0;whiteSpace=wrap;html=1;fontSize=16;" parent="1" vertex="1">
          <mxGeometry x="165" y="830" width="120" height="60" as="geometry" />
        </mxCell>
        <mxCell id="-a4_SDbCGDsIFxmoEFt6-72" value="shiptype" style="rounded=0;whiteSpace=wrap;html=1;fontSize=16;" parent="1" vertex="1">
          <mxGeometry x="390" y="830" width="120" height="60" as="geometry" />
        </mxCell>
        <mxCell id="-a4_SDbCGDsIFxmoEFt6-73" value="shipname" style="rounded=0;whiteSpace=wrap;html=1;fontSize=16;" parent="1" vertex="1">
          <mxGeometry x="138.5" y="1220" width="120" height="60" as="geometry" />
        </mxCell>
        <mxCell id="-a4_SDbCGDsIFxmoEFt6-74" value="" style="rounded=0;orthogonalLoop=1;jettySize=auto;html=1;" parent="1" source="-a4_SDbCGDsIFxmoEFt6-73" target="-a4_SDbCGDsIFxmoEFt6-75" edge="1">
          <mxGeometry relative="1" as="geometry" />
        </mxCell>
        <mxCell id="-a4_SDbCGDsIFxmoEFt6-75" value="shiptype" style="rounded=0;whiteSpace=wrap;html=1;fontSize=16;" parent="1" vertex="1">
          <mxGeometry x="363.5" y="1220" width="120" height="60" as="geometry" />
        </mxCell>
        <mxCell id="-a4_SDbCGDsIFxmoEFt6-76" value="" style="rounded=0;whiteSpace=wrap;html=1;fillColor=none;" parent="1" vertex="1">
          <mxGeometry x="100" y="1340" width="160" height="180" as="geometry" />
        </mxCell>
        <mxCell id="-a4_SDbCGDsIFxmoEFt6-77" value="shipname" style="rounded=0;whiteSpace=wrap;html=1;fontSize=16;" parent="1" vertex="1">
          <mxGeometry x="120" y="1360" width="120" height="60" as="geometry" />
        </mxCell>
        <mxCell id="-a4_SDbCGDsIFxmoEFt6-78" value="date" style="rounded=0;whiteSpace=wrap;html=1;fontSize=16;" parent="1" vertex="1">
          <mxGeometry x="120" y="1440" width="120" height="60" as="geometry" />
        </mxCell>
        <mxCell id="-a4_SDbCGDsIFxmoEFt6-79" value="" style="rounded=0;orthogonalLoop=1;jettySize=auto;html=1;" parent="1" source="-a4_SDbCGDsIFxmoEFt6-76" target="-a4_SDbCGDsIFxmoEFt6-83" edge="1">
          <mxGeometry relative="1" as="geometry" />
        </mxCell>
        <mxCell id="-a4_SDbCGDsIFxmoEFt6-80" value="" style="rounded=0;orthogonalLoop=1;jettySize=auto;html=1;" parent="1" source="-a4_SDbCGDsIFxmoEFt6-76" target="-a4_SDbCGDsIFxmoEFt6-85" edge="1">
          <mxGeometry relative="1" as="geometry" />
        </mxCell>
        <mxCell id="-a4_SDbCGDsIFxmoEFt6-82" value="" style="rounded=0;orthogonalLoop=1;jettySize=auto;html=1;" parent="1" source="-a4_SDbCGDsIFxmoEFt6-83" target="-a4_SDbCGDsIFxmoEFt6-77" edge="1">
          <mxGeometry relative="1" as="geometry">
            <mxPoint x="410" y="1420" as="targetPoint" />
          </mxGeometry>
        </mxCell>
        <mxCell id="-a4_SDbCGDsIFxmoEFt6-83" value="voyageID" style="rounded=0;whiteSpace=wrap;html=1;fontSize=16;" parent="1" vertex="1">
          <mxGeometry x="340" y="1370" width="120" height="60" as="geometry" />
        </mxCell>
        <mxCell id="-a4_SDbCGDsIFxmoEFt6-85" value="port" style="rounded=0;whiteSpace=wrap;html=1;fontSize=16;" parent="1" vertex="1">
          <mxGeometry x="340" y="1460" width="120" height="60" as="geometry" />
        </mxCell>
        <mxCell id="-a4_SDbCGDsIFxmoEFt6-86" value="" style="rounded=0;orthogonalLoop=1;jettySize=auto;html=1;" parent="1" source="-a4_SDbCGDsIFxmoEFt6-87" target="-a4_SDbCGDsIFxmoEFt6-88" edge="1">
          <mxGeometry relative="1" as="geometry" />
        </mxCell>
        <mxCell id="-a4_SDbCGDsIFxmoEFt6-87" value="voyageID" style="rounded=0;whiteSpace=wrap;html=1;fontSize=16;" parent="1" vertex="1">
          <mxGeometry x="495" y="1340" width="120" height="60" as="geometry" />
        </mxCell>
        <mxCell id="-a4_SDbCGDsIFxmoEFt6-88" value="cargo" style="rounded=0;whiteSpace=wrap;html=1;fontSize=16;" parent="1" vertex="1">
          <mxGeometry x="691" y="1340" width="120" height="60" as="geometry" />
        </mxCell>
        <mxCell id="-a4_SDbCGDsIFxmoEFt6-89" value="shipname" style="rounded=0;whiteSpace=wrap;html=1;fontSize=16;" parent="1" vertex="1">
          <mxGeometry x="100" y="1694" width="120" height="60" as="geometry" />
        </mxCell>
        <mxCell id="-a4_SDbCGDsIFxmoEFt6-90" value="" style="rounded=0;orthogonalLoop=1;jettySize=auto;html=1;" parent="1" source="-a4_SDbCGDsIFxmoEFt6-89" target="-a4_SDbCGDsIFxmoEFt6-91" edge="1">
          <mxGeometry relative="1" as="geometry" />
        </mxCell>
        <mxCell id="-a4_SDbCGDsIFxmoEFt6-91" value="shiptype" style="rounded=0;whiteSpace=wrap;html=1;fontSize=16;" parent="1" vertex="1">
          <mxGeometry x="290" y="1694" width="120" height="60" as="geometry" />
        </mxCell>
        <mxCell id="-a4_SDbCGDsIFxmoEFt6-92" value="" style="rounded=0;orthogonalLoop=1;jettySize=auto;html=1;" parent="1" source="-a4_SDbCGDsIFxmoEFt6-93" target="-a4_SDbCGDsIFxmoEFt6-94" edge="1">
          <mxGeometry relative="1" as="geometry" />
        </mxCell>
        <mxCell id="-a4_SDbCGDsIFxmoEFt6-93" value="voyageID" style="rounded=0;whiteSpace=wrap;html=1;fontSize=16;" parent="1" vertex="1">
          <mxGeometry x="477" y="1635" width="120" height="60" as="geometry" />
        </mxCell>
        <mxCell id="-a4_SDbCGDsIFxmoEFt6-94" value="cargo" style="rounded=0;whiteSpace=wrap;html=1;fontSize=16;" parent="1" vertex="1">
          <mxGeometry x="673" y="1635" width="120" height="60" as="geometry" />
        </mxCell>
        <mxCell id="-a4_SDbCGDsIFxmoEFt6-95" value="" style="rounded=0;whiteSpace=wrap;html=1;fillColor=none;" parent="1" vertex="1">
          <mxGeometry x="98.5" y="1830" width="160" height="180" as="geometry" />
        </mxCell>
        <mxCell id="-a4_SDbCGDsIFxmoEFt6-97" value="date" style="rounded=0;whiteSpace=wrap;html=1;fontSize=16;" parent="1" vertex="1">
          <mxGeometry x="118.5" y="1930" width="120" height="60" as="geometry" />
        </mxCell>
        <mxCell id="-a4_SDbCGDsIFxmoEFt6-99" value="" style="rounded=0;orthogonalLoop=1;jettySize=auto;html=1;" parent="1" source="-a4_SDbCGDsIFxmoEFt6-95" target="-a4_SDbCGDsIFxmoEFt6-102" edge="1">
          <mxGeometry relative="1" as="geometry" />
        </mxCell>
        <mxCell id="-a4_SDbCGDsIFxmoEFt6-101" value="voyageID" style="rounded=0;whiteSpace=wrap;html=1;fontSize=16;" parent="1" vertex="1">
          <mxGeometry x="118.5" y="1855" width="120" height="60" as="geometry" />
        </mxCell>
        <mxCell id="-a4_SDbCGDsIFxmoEFt6-102" value="port" style="rounded=0;whiteSpace=wrap;html=1;fontSize=16;" parent="1" vertex="1">
          <mxGeometry x="300" y="1890" width="120" height="60" as="geometry" />
        </mxCell>
        <mxCell id="-a4_SDbCGDsIFxmoEFt6-103" value="shipname" style="rounded=0;whiteSpace=wrap;html=1;fontSize=16;" parent="1" vertex="1">
          <mxGeometry x="670" y="1720" width="120" height="60" as="geometry" />
        </mxCell>
        <mxCell id="-a4_SDbCGDsIFxmoEFt6-105" value="" style="rounded=0;orthogonalLoop=1;jettySize=auto;html=1;exitX=1;exitY=0.75;exitDx=0;exitDy=0;entryX=0;entryY=0.5;entryDx=0;entryDy=0;" parent="1" source="-a4_SDbCGDsIFxmoEFt6-93" target="-a4_SDbCGDsIFxmoEFt6-103" edge="1">
          <mxGeometry relative="1" as="geometry">
            <mxPoint x="707" y="1770" as="targetPoint" />
            <mxPoint x="597" y="1770" as="sourcePoint" />
          </mxGeometry>
        </mxCell>
      </root>
    </mxGraphModel>
  </diagram>
</mxfile>
